<svg xmlns="http://www.w3.org/2000/svg" viewBox="0 0 32 32">
  <defs>
    <linearGradient id="w" x1="0" y1="0" x2="32" y2="32" gradientUnits="userSpaceOnUse">
      <stop offset="0%" stop-color="#5b7cff"/>
      <stop offset="100%" stop-color="#2f3fd9"/>
    </linearGradient>
  </defs>
  <g fill="none" stroke="#5eb1ff" stroke-width="1.3" stroke-linecap="round">
    <path d="M15.5 4 q1 2 0 4"/>
    <path d="M13 5 q0 1.5 -1 2.5"/>
    <path d="M18 5 q0 1.5 1 2.5"/>
  </g>
  <path d="M6 20 C6 13, 14 10, 20 12 L26 10 L24 15 C27 17, 27 22, 22 24 C15 27, 8 25, 6 20 Z" fill="url(#w)"/>
  <path d="M8 21 C10 24, 16 25, 20 23 C17 24, 12 24, 9 22 Z" fill="#7ec4ff" opacity="0.7"/>
  <circle cx="14" cy="17" r="0.9" fill="#ffffff"/>
</svg>